<?xml version="1.0" standalone="no"?>
<!DOCTYPE svg PUBLIC "-//W3C//DTD SVG 20010904//EN"
 "http://www.w3.org/TR/2001/REC-SVG-20010904/DTD/svg10.dtd">
<svg version="1.0" xmlns="http://www.w3.org/2000/svg"
 width="16.000000pt" height="16.000000pt" viewBox="0 0 16.000000 16.000000"
 preserveAspectRatio="xMidYMid meet">
<metadata>
Created by potrace 1.11, written by Peter Selinger 2001-2013
</metadata>
<g transform="translate(0.000000,16.000000) scale(0.001143,-0.001143)"
fill="#000000" stroke="none">
<path d="M6528 12894 c-569 -85 -1054 -392 -1376 -870 -150 -223 -260 -520
-297 -800 -26 -198 -14 -520 25 -653 l9 -33 -97 7 c-1199 84 -2305 530 -3227
1301 -170 143 -435 403 -587 576 l-122 138 -33 -57 c-83 -146 -163 -369 -204
-569 -26 -129 -36 -418 -20 -564 60 -526 338 -1010 762 -1329 l84 -64 -80 7
c-241 21 -461 81 -674 182 -62 30 -115 54 -117 54 -7 0 -4 -108 6 -211 58
-572 363 -1086 836 -1409 189 -129 396 -225 601 -279 l108 -28 -50 -11 c-220
-47 -537 -60 -720 -28 -49 8 -91 13 -93 11 -3 -2 6 -33 18 -67 218 -594 724
-1053 1340 -1217 128 -34 277 -58 387 -63 85 -4 93 7 -87 -117 -576 -395
-1197 -619 -1900 -687 -139 -13 -231 -15 -445 -10 -148 3 -296 10 -328 14 -31
5 -57 5 -57 1 0 -4 53 -38 117 -77 645 -386 1359 -639 2088 -742 290 -40 446
-50 814 -50 353 0 439 4 723 36 136 15 149 15 170 0 13 -9 66 -48 118 -86 156
-115 456 -254 615 -285 17 -3 67 -13 113 -23 l83 -17 34 -62 34 -61 -142 -95
c-78 -52 -169 -110 -203 -129 -107 -62 -346 -179 -454 -222 -58 -24 -114 -46
-125 -51 -11 -4 -24 -9 -30 -10 -5 -2 -52 -17 -104 -34 -86 -29 -341 -97 -401
-107 -14 -3 -49 -9 -79 -15 -30 -6 -64 -12 -75 -14 -89 -11 -143 -18 -156 -20
-146 -26 -747 -25 -845 2 -13 3 -17 2 -10 -5 17 -17 185 -122 195 -122 6 0 10
-4 10 -10 0 -5 5 -10 11 -10 6 0 47 -22 93 -49 156 -92 427 -222 653 -312 210
-85 599 -206 748 -233 11 -2 38 -9 60 -14 22 -6 54 -13 70 -16 17 -2 55 -9 85
-15 91 -17 218 -37 300 -46 30 -3 66 -8 80 -10 123 -19 834 -29 992 -14 l57 6
82 -90 c318 -345 753 -560 1231 -608 l117 -12 -62 -47 c-544 -412 -1211 -671
-1917 -746 -171 -18 -553 -20 -719 -4 -100 9 -134 8 -120 -4 20 -16 263 -158
377 -220 596 -321 1238 -522 1952 -612 178 -22 856 -31 1080 -14 710 54 1391
239 2000 544 368 185 682 391 1015 667 141 117 523 501 645 649 769 930 1217
2023 1321 3225 7 77 13 255 13 396 l1 256 78 58 c205 152 468 409 646 630 105
131 221 290 221 304 0 5 -40 -9 -89 -30 -202 -87 -482 -171 -724 -218 -168
-32 -247 -44 -247 -38 0 2 26 21 58 42 190 126 409 353 545 566 74 116 218
432 203 447 -3 2 -40 -16 -83 -41 -198 -114 -433 -218 -671 -297 -146 -49
-409 -120 -445 -120 -9 0 -65 42 -122 94 -149 133 -268 215 -435 300 -304 154
-570 213 -928 204 l-187 -4 1 238 c1 132 3 240 5 242 13 8 145 111 149 116 3
3 43 39 90 80 222 195 445 446 617 696 l70 101 -86 -37 c-124 -52 -297 -114
-437 -154 -122 -35 -381 -91 -465 -100 -25 -3 -53 -8 -62 -12 -31 -12 -17 2
41 41 72 49 211 164 271 225 221 224 369 462 472 759 l19 53 -23 -14 c-90 -59
-325 -181 -450 -235 -113 -48 -363 -138 -412 -148 -11 -3 -31 -9 -45 -14 -27
-11 -175 -46 -229 -56 -32 -5 -39 -1 -120 77 -48 46 -104 98 -126 116 -129
107 -314 215 -480 280 -209 83 -433 128 -647 131 l-48 1 0 64 0 64 107 83
c211 163 401 341 572 538 95 109 295 371 288 378 -3 2 -67 -20 -143 -50 -289
-114 -522 -175 -932 -241 -12 -2 -21 -2 -20 -1 2 2 44 30 94 64 250 169 474
423 618 701 61 118 131 288 123 297 -2 2 -33 -13 -68 -33 -288 -163 -636 -300
-991 -389 l-182 -46 -55 54 c-289 280 -638 456 -1056 533 -125 23 -467 28
-597 8z"/>
</g>
</svg>
