<?xml version="1.0" standalone="no"?>
<!DOCTYPE svg PUBLIC "-//W3C//DTD SVG 20010904//EN"
 "http://www.w3.org/TR/2001/REC-SVG-20010904/DTD/svg10.dtd">
<svg version="1.0" xmlns="http://www.w3.org/2000/svg"
 width="16.000000pt" height="16.000000pt" viewBox="0 0 16.000000 16.000000"
 preserveAspectRatio="xMidYMid meet">
<metadata>
Created by potrace 1.11, written by Peter Selinger 2001-2013
</metadata>
<g transform="translate(0.000000,16.000000) scale(0.001048,-0.001048)"
fill="#000000" stroke="none">
<path d="M7168 13654 c-569 -85 -1054 -392 -1376 -870 -150 -223 -260 -520
-297 -800 -26 -198 -14 -520 25 -653 l9 -33 -97 7 c-1199 84 -2305 530 -3227
1301 -170 143 -435 403 -587 576 l-122 138 -33 -57 c-83 -146 -163 -369 -204
-569 -26 -129 -36 -418 -20 -564 60 -526 338 -1010 762 -1329 l84 -64 -80 7
c-241 21 -461 81 -674 182 -62 30 -115 54 -117 54 -7 0 -4 -108 6 -211 58
-572 363 -1086 836 -1409 189 -129 396 -225 601 -279 l108 -28 -50 -11 c-220
-47 -537 -60 -720 -28 -49 8 -91 13 -93 11 -3 -2 6 -33 18 -67 218 -594 724
-1053 1340 -1217 128 -34 277 -58 387 -63 85 -4 93 7 -87 -117 -576 -395
-1197 -619 -1900 -687 -139 -13 -231 -15 -445 -10 -148 3 -296 10 -328 14 -31
5 -57 5 -57 1 0 -4 53 -38 117 -77 749 -448 1565 -709 2448 -783 177 -14 911
-6 1073 13 l113 13 27 -28 c15 -16 68 -63 117 -105 267 -225 588 -372 912
-418 104 -15 121 -20 140 -43 13 -14 23 -29 23 -33 0 -9 -156 -121 -270 -194
-487 -312 -1022 -499 -1620 -565 -138 -16 -589 -16 -710 -1 -47 6 -87 9 -88 7
-12 -12 340 -215 573 -330 560 -277 1095 -434 1740 -512 122 -15 226 -18 565
-18 241 1 455 5 510 12 l95 11 50 -47 c310 -290 706 -469 1137 -512 l117 -12
-62 -47 c-544 -412 -1211 -671 -1917 -746 -171 -18 -553 -20 -719 -4 -100 9
-134 8 -120 -4 20 -16 263 -158 377 -220 596 -321 1238 -522 1952 -612 178
-22 856 -31 1080 -14 710 54 1391 239 2000 544 368 185 682 391 1015 667 141
117 523 501 645 649 769 930 1217 2023 1321 3225 7 77 13 255 13 396 l1 256
78 58 c205 152 468 409 646 630 105 131 221 290 221 304 0 5 -40 -9 -89 -30
-202 -87 -482 -171 -724 -218 -168 -32 -247 -44 -247 -38 0 2 26 21 58 42 190
126 409 353 545 566 74 116 218 432 203 447 -3 2 -40 -16 -83 -41 -198 -114
-433 -218 -671 -297 -146 -49 -409 -120 -445 -120 -9 0 -65 42 -122 94 -149
133 -268 215 -435 300 -302 153 -569 212 -925 204 l-185 -4 0 153 c0 84 -1
156 -2 160 -2 4 35 38 82 75 230 186 434 389 605 602 90 112 237 317 232 323
-3 2 -60 -19 -127 -47 -146 -60 -354 -128 -500 -163 -115 -29 -369 -77 -402
-77 -13 0 6 19 58 56 322 230 565 549 699 917 15 42 26 80 23 82 -3 3 -45 -18
-94 -46 -286 -165 -620 -298 -951 -380 l-132 -33 -94 91 c-238 230 -519 387
-835 467 -113 29 -305 56 -398 56 l-64 0 0 139 0 139 107 83 c211 163 401 341
572 538 95 109 295 371 288 378 -3 2 -67 -20 -143 -50 -289 -114 -522 -175
-932 -241 -12 -2 -21 -2 -20 -1 2 2 44 30 94 64 250 169 474 423 618 701 61
118 131 288 123 297 -2 2 -33 -13 -68 -33 -288 -163 -636 -300 -991 -389
l-182 -46 -55 54 c-289 280 -638 456 -1056 533 -125 23 -467 28 -597 8z"/>
</g>
</svg>
